<?xml version="1.0" encoding="utf-8"?>
<!-- Generator: Adobe Illustrator 24.0.1, SVG Export Plug-In . SVG Version: 6.00 Build 0)  -->
<svg version="1.1" id="Layer_1" xmlns="http://www.w3.org/2000/svg" xmlns:xlink="http://www.w3.org/1999/xlink" x="0px" y="0px"
	 viewBox="0 0 1000 1000" style="enable-background:new 0 0 1000 1000;" xml:space="preserve">
<style type="text/css">
	.st0{fill:#FFFFFF;}
	.st1{fill:#75B334;}
</style>
<g>
	<path class="st0" d="M777.61,511.66C771.59,680.02,635.13,815.11,466.25,819c143.56-15.07,256.42-133.12,263.42-278.91
		C746.58,530.62,762.6,521.11,777.61,511.66z"/>
	<path class="st1" d="M435.07,230.69c-160.18,0-290.55,127.69-294.86,286.83c-0.32-5.8-0.47-11.62-0.47-17.48
		c0-176.2,142.83-319.04,319.04-319.04c161.79,0,295.46,120.45,316.23,276.57c-13.23,11.96-28.86,24.39-46.6,37.06
		C712.93,346.31,587.5,230.69,435.07,230.69z"/>
	<path class="st1" d="M262.25,685c-7.95,1.29-15.74,2.45-23.39,3.46c-35.65-43.06-57.34-98.05-58.13-158.09
		C185.22,592.9,216.08,648.15,262.25,685z"/>
	<path class="st1" d="M685.1,563.84c-1.2,8.29-2.81,16.43-4.83,24.44c-27.42,110.36-127.17,192.15-246.03,192.15
		c-65.69,0-125.54-24.97-170.57-65.97c-3.37-3.05-6.66-6.21-9.86-9.45c9.84-1.31,19.97-2.86,30.34-4.62
		c5.65,3.48,11.49,6.72,17.48,9.66c29.1,14.41,61.87,22.48,96.51,22.48c76.79,0,144.31-39.71,183.15-99.68
		c5.71-8.85,10.8-18.12,15.23-27.79c23.17-9.88,45.48-20.06,66.81-30.43C670.71,571.08,677.97,567.47,685.1,563.84z"/>
	<path class="st0" d="M398.14,296.53c-64.51,0-122.47,28.02-162.35,72.54c46.45-58.35,118.07-95.73,198.44-95.73
		c138.34,0,250.8,110.79,253.48,248.48c-1.91,1.18-3.84,2.38-5.8,3.59c-22.01,13.55-46.08,27.12-71.85,40.41
		c3.97-16.45,6.08-33.61,6.08-51.28C616.14,394.13,518.54,296.53,398.14,296.53z"/>
	<path class="st1" d="M830.39,498.65c-7.49,5.54-15.38,11.1-23.64,16.73c-28.75,19.52-62.13,39.45-99.21,58.97
		c-8.89,4.68-17.97,9.34-27.27,13.94c-3.05,1.52-6.12,3.03-9.21,4.53c-28.24,13.79-58.28,27.25-89.76,40.05
		c-13.16,5.35-26.61,10.61-40.24,15.72c-52.96,19.84-105.52,35.17-155.43,46.3c-13.83,3.07-27.44,5.82-40.82,8.27
		c-14.71,2.68-29.12,4.98-43.16,6.91c-12.99,1.78-25.66,3.26-37.97,4.4c-85.53,8.05-153.24,0.99-185.84-18.64
		c35.52,15.1,97.11,19.63,175.98,9.19c9.84-1.31,19.97-2.86,30.34-4.62c14.02-2.43,28.52-5.26,43.44-8.59
		c11.4-2.53,23.04-5.35,34.94-8.44c38.35-9.96,79.07-22.89,121.5-39.08c78.08-29.78,148.62-64.9,205.27-99.9
		c10.61-6.55,20.72-13.1,30.3-19.58c31.44-21.35,57.21-42.24,75.83-61.44c7.67-7.9,14.13-15.55,19.26-22.78
		c12.3-17.39,17.03-32.6,12.71-44.39c-5.5-15.05-23.75-23.64-51.47-26.67c-4.57-6.27-9.43-12.37-14.5-18.27
		c87.49-11.75,147.61-4.02,159.02,27.21C930.53,406.05,895.82,450.35,830.39,498.65z"/>
	<g>
		<g>
			<g>
				<g>
					<path class="st1" d="M515.43,482.06c0,0-4.06,1.43-4.76-1.5c-0.71-2.93-1.25-21,17.7-39.51c6.76-7.17,17.79-20.94,21.59-33.36
						c0,0,1.59,0.81,0.36,4.17c-1.23,3.36-7.82,18.8-19.38,31.82C523.81,451.14,513.68,461.96,515.43,482.06z"/>
					<path class="st1" d="M551.72,405.85c0,0-8.91-16.19,6.95-26.87C558.67,378.99,565.82,397.02,551.72,405.85z"/>
					<path class="st1" d="M548.45,422.22c0,0,15.46,4.14,23.2-15.15c0,0-17.49-1.07-22.93,12.01c0,0,4.55-4.38,12.78-6.14
						C561.5,412.95,547.93,418.17,548.45,422.22z"/>
					<path class="st1" d="M539.19,434.89c0,0,7.42-13.3,25.82-6.91c0,0-11.54,17.03-24.83,7.71c0,0,5.86-3.37,11.49-3.61
						C551.66,432.09,545.86,431.14,539.19,434.89z"/>
					<path class="st1" d="M529.31,447.8c0,0,11.92,11.07,26.95-1.32c0,0-11.29-9.33-24.54-1.04c0,0,9.3-1.07,13.98,0.54
						C545.7,445.98,530.57,445.96,529.31,447.8z"/>
					<path class="st1" d="M523.86,443.92c0,0-13.21-8.53-6.61-25.85C517.25,418.07,532.74,428.27,523.86,443.92z"/>
					<path class="st1" d="M527.78,404.85c0,0-6.11,18.17,7.27,25.48C535.05,430.33,542.01,415.48,527.78,404.85z"/>
					<path class="st1" d="M543.43,415.63c0,0-12.93-4.4-7.1-26.2c0,0,15.57,10.49,8.77,25.92c0,0-2-9.28-5.17-13
						C539.94,402.35,544.22,412.45,543.43,415.63z"/>
				</g>
			</g>
			<g>
				<g>
					<path class="st0" d="M482.27,437.14c-0.41-0.01-3.16-5.07-3.51-5.52c-6.66-8.93-16.25-15-27.5-15.89
						c-10.24-0.81-20.73,2.29-29.68,7.17c-12.38,6.76-21.72,14.83-30.61,28.47c0,0-13.67-18.32-53.05-21.75
						c-2.16-0.2-4.4-0.34-6.73-0.43c-23.26-2.31-59.37-5.03-86.49-38.06c0.88,29.02,8.99,62.97,43.28,78.67
						c0,0-31.25,4.92-56.72-40.9c0,0,8.83,73.53,90.43,77.33c0,0-38.03,13.18-72.84-4.58c0.08,0.12,0.12,0.23,0.21,0.36
						c4.47,4.84,44.58,45.64,108.76,29.56c0,0-15.59,16.73-57.4,14.92c22.02,8.31,50.31,10.36,86.69,2.72
						c0,0-39.64,51.3-138.81,98.2c-0.01,0.01,10.8,14.74,33.19,10.79c0,0-9.85,5.9-23.73,2.69c0,0,0.07,0.08,0.25,0.24
						c0.34,0.31,0.71,0.63,1.06,0.96l0.04,0.04c0.21,0.17,0.43,0.36,0.63,0.52c4.7,3.75,17.25,11.63,33.4,4.8
						c-0.44,0.39-8.38,6.95-17.01,6.04c0,0,0.06,0.01,0.14,0.06c2.02,0.9,24.09,10.32,45.12,1.7l1.17-0.52
						c21.22-9.44,36.85-26.77,46.67-40.58c-28.41,8.75-41.62,2.46-41.62,2.46c13-0.83,62.96-19.45,66.3-20.69
						c0.12-0.06,0.18-0.08,0.18-0.08l0.01,0c66.5-25.98,81.36-50.41,90.05-80.29c2.43-8.24,2.39-17.29,1.8-25.79
						c-0.62-8.69-2.44-18.89,0.9-27.22c1.56-3.91,3.81-7.42,6.67-10.51c8.8-9.53,21.63-14.87,33.78-18.62
						C527.29,453.41,518.4,437.16,482.27,437.14z M471.44,517.89c-0.48,8.19-1.71,28.39-41.11,55.49
						c-39.42,27.11-80.4,26.97-80.4,26.97c81.67-50.92,67.72-106.09,57.26-128.37c-3.03-6.49-5.77-10.18-5.77-10.18
						c5.81-10.24,13.06-18.17,20.67-23.63c10.83-7.78,22.4-10.54,31.55-7.89c15.55,4.55,21.95,21.37,21.95,21.37
						c12.61-2.95,25.4,1.96,25.4,1.96C462.76,466.34,471.89,509.72,471.44,517.89z"/>
					<circle class="st0" cx="448.09" cy="445.82" r="6.95"/>
				</g>
				<g>
					<path class="st1" d="M419.02,418.65c-12.02,6.59-20.87,14.25-28.75,25c-7.13-6.17-23.06-16.45-51.91-18.98
						c-16.61-6.34-23.32-20.32-28.08-31.59c-4.76-11.28-28.27-17.46-28.27-17.46S377.38,353.37,419.02,418.65z"/>
				</g>
			</g>
		</g>
	</g>
</g>
</svg>
